<?xml version="1.0" standalone="no"?>
<!DOCTYPE svg PUBLIC "-//W3C//DTD SVG 20010904//EN"
 "http://www.w3.org/TR/2001/REC-SVG-20010904/DTD/svg10.dtd">
<svg version="1.0" xmlns="http://www.w3.org/2000/svg"
 width="700.000000pt" height="700.000000pt" viewBox="0 0 700.000000 700.000000"
 preserveAspectRatio="xMidYMid meet">
<metadata>
Created by potrace 1.11, written by Peter Selinger 2001-2013
</metadata>
<g transform="translate(0.000000,700.000000) scale(0.100000,-0.100000)"
fill="#000000" stroke="none">
<path d="M5865 5754 c-371 -76 -666 -313 -802 -644 -86 -207 -93 -423 -22
-634 54 -159 126 -273 253 -398 190 -188 434 -282 731 -282 211 0 352 40 534
150 51 31 120 67 154 81 83 34 109 54 150 115 69 106 102 273 71 362 -26 73
-87 121 -149 117 -37 -2 -55 -14 -131 -89 -83 -81 -177 -126 -314 -150 -229
-41 -447 95 -562 349 -67 148 -84 337 -39 437 40 89 113 139 217 146 76 6 149
-7 216 -39 72 -34 126 -81 195 -169 120 -154 177 -181 317 -150 75 16 154 94
182 178 13 38 15 69 11 138 -4 49 -11 97 -17 108 -6 11 -9 20 -6 20 8 0 -44
121 -71 163 -34 54 -111 135 -145 153 -46 24 -95 26 -156 8 -79 -23 -86 -23
-182 3 -47 13 -96 26 -110 29 -50 12 -266 11 -325 -2z"/>
<path d="M3947 5300 c-157 -51 -316 -141 -383 -219 -22 -26 -49 -97 -59 -157
-2 -16 -7 -106 -10 -200 -16 -493 -17 -512 -42 -521 -22 -9 -47 6 -225 138
-483 360 -474 354 -547 346 -140 -15 -406 -150 -537 -273 -83 -78 -92 -193
-21 -256 17 -16 33 -28 36 -29 3 0 15 -3 26 -5 11 -2 44 -6 74 -9 67 -5 89
-20 134 -88 104 -156 415 -899 419 -1000 2 -35 -5 -51 -41 -97 -39 -50 -42
-59 -38 -103 13 -154 200 -164 464 -25 193 101 274 190 257 283 -12 70 -53
101 -143 110 -36 3 -71 11 -78 17 -31 25 -213 422 -213 463 0 14 3 14 31 -2
17 -10 48 -34 69 -53 21 -19 58 -52 82 -72 24 -20 54 -46 68 -58 14 -12 39
-34 55 -48 30 -28 155 -133 192 -163 172 -139 232 -164 284 -117 14 13 30 34
35 48 5 14 9 198 9 410 0 300 3 390 13 408 11 19 16 21 28 11 36 -30 176 -361
176 -414 0 -16 -12 -58 -26 -92 -32 -77 -33 -110 -3 -153 77 -113 233 -89 607
96 238 118 331 220 300 332 -16 60 -61 94 -139 106 -72 11 -92 30 -170 162
-185 312 -387 771 -396 901 -2 27 5 58 19 90 34 73 37 96 21 144 -20 55 -40
77 -93 101 -56 25 -131 22 -235 -12z"/>
<path d="M1141 3689 c-43 -9 -80 -37 -106 -78 -65 -106 -160 -213 -381 -430
-137 -134 -316 -309 -398 -390 -181 -177 -206 -213 -201 -283 7 -111 108 -174
206 -130 24 11 51 22 59 24 43 14 204 -109 417 -319 211 -207 325 -338 421
-480 54 -80 59 -104 33 -179 -17 -52 -18 -66 -9 -99 14 -43 65 -83 119 -91 59
-9 104 20 248 160 75 74 170 166 211 206 41 40 156 152 256 249 269 262 328
315 396 362 57 39 102 82 114 109 26 60 -9 206 -87 367 -64 130 -120 195 -197
223 -90 34 -161 10 -201 -68 -23 -45 -21 -93 9 -188 43 -137 27 -232 -58 -346
-63 -85 -215 -224 -264 -241 -22 -8 -114 61 -218 162 -86 85 -112 125 -100
157 12 31 65 65 109 71 33 5 47 -1 108 -42 79 -52 119 -59 160 -28 78 58 87
127 31 244 -112 234 -405 481 -540 455 -75 -14 -127 -90 -114 -167 2 -17 27
-64 55 -106 28 -41 51 -79 51 -85 0 -14 -118 -128 -133 -128 -19 0 -242 233
-256 269 -12 27 -11 35 12 74 26 44 148 161 226 218 85 61 150 75 248 55 101
-21 161 -5 204 55 51 72 32 171 -49 255 -111 117 -272 185 -381 163z"/>
</g>
</svg>
